<svg version="1.1" xmlns="http://www.w3.org/2000/svg" viewBox="109.375 611.9791870117188 1804.6875 682.2916870117188" width="693" height="262" preserveAspectRatio="none" style="">
<defs>
	<linearGradient id="Gradient1" gradientUnits="userSpaceOnUse" x1="435.75" y1="1084.6" x2="483.106" y2="835.669">
		<stop class="stop0" offset="0" stop-opacity="1" stop-color="rgb(33,169,187)"/>
		<stop class="stop1" offset="1" stop-opacity="1" stop-color="rgb(87,226,228)"/>
	</linearGradient>
</defs>
<path transform="translate(0,0)" fill="rgb(2,107,119)" d="M 450.333 672.512 C 453.335 673.001 455.57 672.962 457.728 675.713 C 466.461 686.851 475.227 700.537 483.103 712.336 C 497.619 734.192 512.3 755.938 527.143 777.574 C 535.273 789.666 546.214 807.267 555.025 818.247 C 546.879 825.06 538.609 831.21 530.277 838.286 C 522.544 828.895 506.973 804.872 499.874 794.19 C 484.671 771.308 467.42 747.279 452.927 724.163 C 440.094 743.609 428.022 763.836 415.258 783.348 C 389.507 822.711 364.715 861.75 341.058 902.463 C 315.044 946.395 300.05 992.16 298.055 1043.36 C 287.258 1043.83 276.844 1045.27 266.099 1046.35 C 265.754 1024.62 265.301 1012.4 268.989 990.641 C 278.965 931.782 309.269 885.458 341.042 836.614 L 386.772 766.676 L 426.679 706.354 C 432.934 696.926 443.032 680.558 450.333 672.512 z"/>
<path transform="translate(0,0)" fill="url(#Gradient1)" d="M 313.731 1040.9 C 317.049 1022.62 318.214 1008.45 322.813 989.723 C 339.115 923.34 373.111 872.164 409.659 815.969 C 394.823 864.698 388.722 918.32 407.224 966.432 C 429.72 1024.93 480.483 1072.52 537.776 1096.15 C 543.836 1098.65 550.075 1100.83 556.005 1103.48 C 558.198 1104.87 559.771 1105.87 561.858 1107.44 C 559.465 1108.11 557.975 1108.42 555.523 1108.87 C 547.26 1108.98 524.831 1103.17 516.746 1100.72 C 439.244 1077.26 398.975 1039.96 313.731 1040.9 z"/>
<path transform="translate(0,0)" fill="rgb(18,147,168)" d="M 319.727 1056.44 C 330.109 1055.58 343.549 1057.44 353.858 1058.98 C 422.808 1069.26 480.542 1117.49 550.042 1125.21 C 615.637 1132.49 674.125 1105.37 724.043 1065.07 C 701.54 1103.35 674.475 1125.2 634.636 1143.18 C 548.722 1174.49 493.552 1145.5 417.822 1108.52 C 345.831 1073.37 273.012 1073.49 198.286 1100.95 C 236.442 1072.74 272.807 1059.83 319.727 1056.44 z"/>
<path transform="translate(0,0)" fill="rgb(2,107,119)" d="M 934.65 945.2 C 956.986 942.843 959.229 952.925 968.79 954.852 C 969.203 952.442 969.193 951.307 970.403 949.196 C 975.189 947.485 988.34 948.139 993.971 948.181 L 994.069 1093.75 C 985.251 1093.55 976.836 1093.7 968.035 1093.88 L 968.077 1077.25 C 968.192 1065.74 968.163 1054.23 967.991 1042.72 C 951.342 1054.99 932.828 1060.02 913.622 1048.48 C 887.487 1032.79 885.129 989.191 901.024 965.503 C 909.226 953.279 920.52 947.771 934.65 945.2 z M 947.371 1033.25 C 958.602 1030.66 961.094 1028.96 967.923 1019.49 C 968.829 994.385 975.175 962.624 938.582 967.392 C 930.639 970.562 923.618 975.583 921.012 983.894 C 913.079 1009.2 920.168 1030.61 947.371 1033.25 z"/>
<path transform="translate(0,0)" fill="rgb(2,107,119)" d="M 801.805 905.872 L 833.261 905.784 C 839.618 920.648 846.481 940.669 852.377 956.128 C 864.674 988.011 876.806 1019.96 888.772 1051.97 C 879.451 1051.91 870.13 1052 860.812 1052.24 C 856.256 1042.54 851.801 1028.42 848.187 1018.03 L 831.776 1018.04 C 818.456 1017.93 800.253 1018.27 787.346 1017.21 C 782.558 1028.23 778.53 1040.43 774.509 1051.81 C 764.89 1051.72 755.177 1051.81 745.55 1051.83 C 750.761 1040.89 758.876 1017.56 763.469 1005.51 C 775.955 972.187 788.734 938.972 801.805 905.872 z M 793.805 997.02 L 815.75 996.799 C 823.838 996.798 832.434 996.641 840.474 996.841 C 832.579 977.068 825.489 953.077 817.101 934.553 C 809.467 955.424 801.701 976.247 793.805 997.02 z"/>
<path transform="translate(0,0)" fill="rgb(2,107,119)" d="M 297.643 1133.75 C 311.906 1136.94 327.743 1136.64 342.027 1141.87 C 353.171 1145.99 362.259 1154.72 372.277 1160.99 C 411.906 1186.11 466.278 1197.69 512.115 1185.14 C 534.578 1178.99 548.271 1170.97 573.144 1170.92 C 585.429 1170.89 611.103 1163.97 623.002 1159.48 C 616.854 1166.45 613.383 1169.8 606.289 1175.82 C 604.765 1177.13 603.208 1178.41 601.618 1179.65 C 556.588 1214.58 494.028 1227.44 438.466 1219.24 C 377.048 1210.18 334.646 1181.82 297.643 1133.75 z"/>
<path transform="translate(0,0)" fill="rgb(2,107,119)" d="M 1287.26 904.298 C 1309.66 901.768 1325.62 906.09 1344.07 918.036 C 1341.3 925.331 1338.21 932.765 1335.3 940.032 C 1320.28 931.066 1289.7 920.379 1276.09 933.615 C 1258.32 950.882 1292.02 962.725 1302.25 965.78 C 1322.36 971.789 1345.35 983.418 1346.16 1007.18 C 1347.28 1039.77 1324.74 1053.08 1294.89 1054.22 C 1270.69 1054.38 1258.35 1052.31 1238.79 1037.84 C 1241.8 1030.6 1245.47 1023.49 1248.97 1016.46 C 1265.26 1026.63 1282.11 1035.17 1301.79 1031.25 C 1311.62 1029.79 1321.99 1019.3 1317.59 1008.51 C 1310.08 990.117 1276.18 989.837 1260.44 978.076 C 1241.32 963.785 1240.28 941.5 1251.47 922.528 C 1257.96 911.511 1275.61 906.152 1287.26 904.298 z"/>
<path transform="translate(0,0)" fill="rgb(2,107,119)" d="M 1403.33 945.368 C 1416.35 943.145 1431.88 947.528 1441.12 957.075 C 1455.34 971.757 1456.08 989.515 1456.04 1008.58 C 1437.46 1009.13 1400.42 1009.82 1382.44 1008.1 C 1389.16 1028.11 1398.57 1037.34 1421.42 1032.15 C 1430.01 1030.2 1434.75 1026.3 1442.34 1022.62 C 1445.85 1028.01 1449.28 1033.45 1452.65 1038.94 C 1418.9 1064.98 1365.56 1061.25 1358.07 1010.62 C 1353.47 979.51 1368.63 948.944 1403.33 945.368 z M 1383.1 990.079 L 1411.6 990.243 L 1432.3 990.005 C 1426.79 973.101 1424.14 964.948 1404.61 965.078 C 1389.94 969.148 1387.06 976.121 1383.1 990.079 z"/>
<path transform="translate(0,0)" fill="rgb(2,107,119)" d="M 1732.57 945.369 C 1745.07 943.138 1761.71 947.885 1770.38 957.321 C 1784.9 973.117 1784.42 989.336 1784.03 1009.04 C 1763.44 1007.84 1732.01 1008.82 1710.7 1008.8 C 1720.4 1032.38 1731.74 1039.48 1758.44 1030.47 C 1762.86 1028.97 1764.7 1025.98 1770.14 1024.65 C 1774.21 1029.98 1776.7 1033.97 1780.21 1039.65 C 1771.1 1046.78 1761.98 1052.68 1750.15 1053.91 C 1734.39 1055.65 1716.78 1054.28 1704.02 1043.85 C 1680.95 1025 1680.19 984.175 1698.98 962.016 C 1708.48 950.824 1718.59 946.902 1732.57 945.369 z M 1711.51 990.206 L 1739.35 990.248 L 1760.32 990.274 C 1756.71 974.323 1753.74 965.065 1735 965.258 C 1719.1 967.893 1715.88 975.694 1711.51 990.206 z"/>
<path transform="translate(0,0)" fill="rgb(2,107,119)" d="M 1171.31 945.362 C 1189.88 941.497 1214.75 950.224 1219.78 969.021 C 1226.44 993.937 1221.18 1024.95 1223.58 1050.6 L 1223.72 1052.01 C 1217.01 1052.21 1208.47 1052.74 1201.99 1051.95 C 1199.61 1049.82 1200.25 1049.01 1199.56 1044.97 C 1199.2 1044.51 1198.84 1044.06 1198.48 1043.6 C 1196.23 1044.69 1188.18 1049.13 1186.34 1050.06 C 1177.91 1054.33 1166.8 1055.36 1157.7 1053.61 C 1147.46 1051.65 1141.02 1046.99 1135.27 1038.66 C 1119.16 992.766 1166.42 989.283 1198.01 990.591 L 1197.78 989.388 L 1197.37 987.39 C 1191.04 955.683 1163.25 965.344 1143.89 978.906 C 1139.66 972.871 1136.59 967.226 1132.99 960.806 C 1146.08 950.971 1155.33 947.375 1171.31 945.362 z M 1181.02 1034.07 C 1196.69 1028.44 1197.77 1024.06 1196.25 1007.58 C 1192.31 1007.69 1178.87 1007.79 1175.69 1008.28 C 1170.27 1009.37 1163.17 1010.32 1160.69 1015.65 C 1153.5 1031.09 1168.6 1037.29 1181.02 1034.07 z"/>
<path transform="translate(0,0)" fill="rgb(2,107,119)" d="M 1527.67 945.217 C 1555.69 942.444 1569.88 959.835 1570.09 986.551 C 1570.26 1008.35 1570.07 1030.22 1570.1 1052.02 L 1543.98 1052.07 C 1544.78 1042.59 1544.15 1032.4 1544.46 1022.86 C 1545.2 1000.27 1547.87 951.866 1509.74 972.035 C 1504.76 976.051 1503.96 976.794 1500.26 981.985 C 1499.87 1005.33 1499.78 1028.68 1499.99 1052.03 L 1474.13 1052.07 C 1475.84 1024.27 1474.1 977.307 1473.98 948.483 C 1481.21 948.11 1490.3 948.325 1497.67 948.295 L 1499.02 959.171 C 1509.23 950.792 1514.29 947.453 1527.67 945.217 z"/>
<path transform="translate(0,0)" fill="rgb(2,107,119)" d="M 1017.92 948.216 C 1026 948.455 1035.18 948.966 1043.09 947.93 C 1043.57 968.85 1042.77 989.9 1043.74 1010.81 C 1044.92 1035.97 1071.75 1039.34 1084.89 1019.89 C 1085.96 998.523 1085.25 970.169 1085.3 948.299 C 1094.25 949.044 1101.26 948.651 1110.22 948.138 C 1110.46 957.674 1110.59 967.212 1110.61 976.75 C 1110.48 1001.85 1110.73 1026.96 1111.36 1052.06 L 1088.25 1052.11 L 1086.65 1041.3 C 1063.31 1063.2 1023.14 1057.68 1019.03 1026 C 1016.2 1004.15 1017.89 970.92 1017.92 948.216 z"/>
<path transform="translate(0,0)" fill="rgb(2,107,119)" d="M 1625.63 945.341 C 1643.86 942.995 1657.77 947.44 1672.73 957.477 C 1669.6 963.187 1666.53 969.435 1663.54 975.264 C 1652.08 969.574 1629.73 958.224 1617.35 969.948 C 1615.5 971.698 1615.48 974.177 1615.69 976.585 C 1624.03 992.79 1672.63 986.716 1672.96 1019.37 C 1673.21 1043.69 1654.98 1053.01 1633.83 1054.24 C 1612.48 1054.79 1603.22 1052.75 1585.45 1040.86 C 1588.55 1034.49 1591.89 1028.23 1595.45 1022.1 C 1606.62 1028.38 1616.33 1034.28 1629.72 1033.73 C 1637.45 1033.42 1647.56 1030.13 1646.85 1020.79 C 1637.92 1005.54 1592.57 1009.58 1589.77 982.242 C 1587.39 959.033 1605.07 947.782 1625.63 945.341 z"/>
<path transform="translate(0,0)" fill="rgb(2,107,119)" d="M 637.301 931.124 L 638.939 931.549 C 644.087 936.813 647.954 946.12 651.451 953.883 C 669.408 994.048 675.265 1041.78 665.038 1084.67 C 663.321 1091.86 635.293 1099.78 628.24 1102.48 C 625.292 1103.69 626.748 1103.69 623.852 1103.17 C 623.8 1099.19 627.888 1094.64 629.386 1089.95 C 647.06 1034.59 635.591 988.515 611.519 938.97 C 620.05 936.151 628.646 933.535 637.301 931.124 z"/>
<path transform="translate(0,0)" fill="rgb(18,147,168)" d="M 304.216 1099.58 C 363.076 1090.05 424.003 1136.81 474.45 1159.44 C 486.539 1164.86 503.152 1168.4 516.186 1171.62 C 484.983 1173.14 456.549 1170.05 427.156 1158.98 C 409.232 1151.91 391.056 1142.59 373.026 1135.27 C 314.241 1111.42 273.553 1119.3 215.408 1133.51 C 241.699 1114.93 272.238 1103.27 304.216 1099.58 z"/>
<path transform="translate(0,0)" fill="rgb(58,196,205)" d="M 556.268 892.79 C 549.301 875.163 556.602 855.108 573.271 846.085 C 589.941 837.062 610.723 841.915 621.673 857.387 C 632.623 872.859 630.288 894.072 616.235 906.792 C 602.181 919.512 580.841 919.728 566.533 907.295 C 561.998 903.353 558.477 898.379 556.268 892.79 z"/>
<path transform="translate(0,0)" fill="rgb(2,107,119)" d="M 519.973 964.871 C 532.587 972.094 545.838 982.073 557.613 990.719 C 572.285 977.306 591.605 974.545 605.798 990.257 C 612.345 997.493 615.593 1007.12 614.769 1016.84 C 613.027 1037.46 597.073 1049.04 576.853 1046.11 C 552.998 1042.65 548.978 1026.74 548.259 1005.51 C 535.899 996.602 523.437 987.836 510.876 979.213 C 513.842 974.391 516.875 969.61 519.973 964.871 z"/>
<path transform="translate(0,0)" fill="rgb(29,141,209)" d="M 510.876 979.213 C 504.94 984.149 497.957 987.472 490.252 988.425 C 480.656 989.619 471 986.727 463.639 980.455 C 456.057 973.986 451.372 964.756 450.626 954.818 C 447.956 921.306 484.778 906.442 509.573 927.229 C 511.426 930.635 516.675 941.2 519.059 943.193 C 521.182 948.869 522.534 959.29 519.973 964.871 C 516.875 969.61 513.842 974.391 510.876 979.213 z"/>
<path transform="translate(0,0)" fill="rgb(18,147,168)" d="M 509.573 927.229 C 525.095 917.814 540.288 902.836 556.268 892.79 C 558.477 898.379 561.998 903.353 566.533 907.295 C 556.247 914.369 546.006 922.487 536.101 930.141 C 531.957 933.344 522.465 939.949 519.059 943.193 C 516.675 941.2 511.426 930.635 509.573 927.229 z"/>
<path transform="translate(0,0)" fill="rgb(18,147,168)" fill-opacity="0.988235" d="M 556.005 1103.48 C 562.105 1104.86 585.563 1108.35 588.187 1109.63 C 580.418 1110.83 563.409 1110.34 555.523 1108.87 C 557.975 1108.42 559.465 1108.11 561.858 1107.44 C 559.771 1105.87 558.198 1104.87 556.005 1103.48 z"/>
</svg>